<?xml version="1.0" encoding="UTF-8" standalone="no"?>
<!-- Created with Inkscape (http://www.inkscape.org/) -->

<svg
   xmlns:dc="http://purl.org/dc/elements/1.1/"
   xmlns:cc="http://creativecommons.org/ns#"
   xmlns:rdf="http://www.w3.org/1999/02/22-rdf-syntax-ns#"
   xmlns:svg="http://www.w3.org/2000/svg"
   xmlns="http://www.w3.org/2000/svg"
   xmlns:sodipodi="http://sodipodi.sourceforge.net/DTD/sodipodi-0.dtd"
   xmlns:inkscape="http://www.inkscape.org/namespaces/inkscape"
   width="266.66666"
   height="266.66666"
   viewBox="0 0 250 250"
   id="svg2"
   version="1.1"
   inkscape:version="0.92.1 r15371"
   sodipodi:docname="logo-cd.svg">
  <defs
     id="defs4">
    <pattern
       y="0"
       x="0"
       height="6"
       width="6"
       patternUnits="userSpaceOnUse"
       id="EMFhbasepattern" />
    <pattern
       y="0"
       x="0"
       height="6"
       width="6"
       patternUnits="userSpaceOnUse"
       id="EMFhbasepattern-6" />
    <pattern
       y="0"
       x="0"
       height="6"
       width="6"
       patternUnits="userSpaceOnUse"
       id="EMFhbasepattern-5" />
    <pattern
       y="0"
       x="0"
       height="6"
       width="6"
       patternUnits="userSpaceOnUse"
       id="EMFhbasepattern-3" />
  </defs>
  <sodipodi:namedview
     id="base"
     pagecolor="#ffffff"
     bordercolor="#666666"
     borderopacity="1.0"
     inkscape:pageopacity="0.0"
     inkscape:pageshadow="2"
     inkscape:zoom="1.1463013"
     inkscape:cx="-227.69732"
     inkscape:cy="232.67237"
     inkscape:document-units="px"
     inkscape:current-layer="layer1"
     showgrid="false"
     units="px"
     inkscape:window-width="1920"
     inkscape:window-height="1033"
     inkscape:window-x="-4"
     inkscape:window-y="-4"
     inkscape:window-maximized="1" />
  <metadata
     id="metadata7">
    <rdf:RDF>
      <cc:Work
         rdf:about="">
        <dc:format>image/svg+xml</dc:format>
        <dc:type
           rdf:resource="http://purl.org/dc/dcmitype/StillImage" />
        <dc:title />
      </cc:Work>
    </rdf:RDF>
  </metadata>
  <g
     inkscape:label="Layer 1"
     inkscape:groupmode="layer"
     id="layer1"
     transform="translate(0,-802.36214)">
    <path
       inkscape:connector-curvature="0"
       id="path4252"
       d="m 149.38047,906.49561 c 1.09781,0 2.34665,0 3.67332,0 4.28619,0 9.31819,0 12.28236,0 3.97524,0 3.9249,2.1672 3.88837,5.3038 -0.032,2.9399 -0.48495,7.2927 -1.76115,13.2594 -1.24432,5.8661 -2.52517,10.1869 -3.75568,13.2548 -0.91943,2.2998 -1.80697,3.8865 -2.56622,4.9152 -1.17565,1.55 -1.84363,1.8746 -2.60287,2.1626 -0.76401,0.2789 -1.93966,0.375 -3.73283,0.3658 -8.83789,0 -58.763633,0 -67.459663,0 -3.8792,0 -4.68879,-0.9052 -4.68427,-3.6807 0,-1.7602 0.28823,-4.3115 1.00178,-7.6675 0.76402,-3.603 1.27169,-4.4213 2.1866,-6.3325 1.39985,-2.8897 2.63488,-3.9504 3.774,-4.586 1.15268,-0.6263 2.64857,-0.9053 4.83516,-0.9053 h 20.937353 l 2.1866,-10.2737 H 94.459377 c -1.98987,0 -4.1353,0.1509 -6.36758,0.7818 -1.66977,0.4709 -3.37606,1.2345 -4.96334,2.3501 -2.39248,1.6734 -4.42805,4.0968 -6.03831,7.1647 -1.61477,3.0816 -2.47934,4.9654 -3.48112,9.661 -0.80519,3.8179 -1.22599,6.9911 -1.23064,9.8074 0.005,2.3411 0.29275,4.4717 1.06129,6.4607 0.57182,1.4813 1.45471,2.8713 2.58003,3.964 1.70164,1.6689 3.78768,2.5559 5.69521,2.9949 1.93037,0.448 3.78304,0.5304 5.63119,0.5395 8.69603,0 58.621773,0 67.459663,0 1.70629,-0.01 3.79685,0 6.17552,-0.6447 1.77031,-0.48 3.65964,-1.3763 5.34296,-2.7617 2.54349,-2.0849 4.56538,-5.0523 6.34486,-9.0941 1.77484,-4.0692 3.35308,-9.3045 4.85349,-16.3411 1.36321,-6.424 1.98072,-11.3666 1.98536,-15.3946 -0.005,-2.9308 -0.32489,-5.4044 -1.09329,-7.6081 -0.57182,-1.6507 -1.43639,-3.155 -2.57551,-4.3665 -1.71081,-1.8472 -3.9249,-2.8073 -5.76376,-3.2006 -1.85731,-0.4069 -3.4584,-0.3978 -4.73925,-0.4069 -5.92846,0 -20.10015,0 -20.123,0 h -4.16279 l -9.30903,43.7424 h 10.51205 z"
       style="fill:#053f79;fill-opacity:1;fill-rule:nonzero;stroke:none" />
    <path
       inkscape:connector-curvature="0"
       id="path4254"
       d="m 190.57841,895.58171 c -1.60574,-3.26 -3.78795,-5.8753 -6.22612,-7.8139 -3.6688,-2.9262 -7.79029,-4.3299 -11.50479,-5.034 -3.72366,-0.6996 -7.13625,-0.7224 -9.61559,-0.727 -4.67046,0 -11.97129,0 -18.10576,0 -6.13885,0 -11.09302,0 -11.10671,0 h -4.16279 l -12.33283,57.9529 H 128.036 l 10.1461,-47.6746 c 6.34023,0 18.38031,0 25.04981,0 2.09055,0 4.47838,0.037 6.83433,0.3979 1.76115,0.2697 3.48112,0.7178 5.02271,1.4036 2.31929,1.0516 4.21765,2.5102 5.77757,5.1209 1.53707,2.6245 2.74473,6.6297 2.74473,12.8434 0,3.6211 -0.41628,7.9648 -1.3907,13.1176 -1.76579,9.3137 -3.94774,16.1537 -6.29904,21.0642 -1.76115,3.6852 -3.60013,6.2777 -5.41614,8.1294 -2.73557,2.7617 -5.3933,4.0235 -8.52682,4.7917 -3.12435,0.7453 -6.729,0.823 -10.67688,0.8138 -13.90178,0 -52.167183,0 -65.858573,0 -4.33201,0.01 -8.74173,-1.1613 -11.77005,-3.676 -1.53707,-1.2619 -2.80877,-2.8439 -3.76941,-5.034 -0.95606,-2.181 -1.5919,-5.0112 -1.5919,-8.7284 0,-2.373 0.26074,-5.098 0.86914,-8.2026 1.29915,-6.6159 2.63486,-9.7936 4.54703,-13.5748 2.90014,-5.6833 6.06115,-8.5272 9.24953,-10.2189 3.19302,-1.6643 6.66962,-2.1764 10.24227,-2.1764 H 118.4204 l 2.19124,-10.2738 H 93.219707 c -3.01916,0 -6.35855,0.279 -9.80767,1.2711 -5.17825,1.4631 -10.5487,4.6819 -14.85786,10.3378 -4.33202,5.6466 -7.300855,11.6683 -9.460001,22.6599 -0.718188,3.6623 -1.06585,7.0457 -1.06585,10.1777 0,4.8877 0.850851,9.1856 2.45192,12.8434 2.387861,5.5095 6.500311,9.4142 11.010731,11.7003 4.52873,2.309 9.40506,3.164 13.95212,3.1685 13.69139,0 51.956793,0 65.858573,0 3.56813,0 7.44268,-0.014 11.50944,-0.768 3.042,-0.5671 6.19836,-1.582 9.23584,-3.3607 4.57443,-2.661 8.69604,-6.9909 12.05377,-13.2777 3.36689,-6.3005 6.0982,-14.5899 8.22025,-25.7507 1.07006,-5.665 1.57347,-10.6304 1.57347,-15.0334 0,-6.6846 -1.15655,-12.1119 -3.31603,-16.4692 z"
       style="fill:#053f79;fill-opacity:1;fill-rule:nonzero;stroke:none" />
    <path
       inkscape:connector-curvature="0"
       id="path4256"
       d="M 124.86582,882.00681 H 79.619837 l -2.18659,10.2783 c 0,0 20.87784,0 35.214233,0 10.80945,0 12.21834,-10.2783 12.21834,-10.2783 z"
       style="fill:#053f79;fill-opacity:1;fill-rule:nonzero;stroke:none" />
  </g>
</svg>
